<?xml version="1.0" standalone="no"?>
<!DOCTYPE svg PUBLIC "-//W3C//DTD SVG 20010904//EN"
 "http://www.w3.org/TR/2001/REC-SVG-20010904/DTD/svg10.dtd">
<svg version="1.0" xmlns="http://www.w3.org/2000/svg"
 width="640.000000pt" height="640.000000pt" viewBox="0 0 640.000000 640.000000"
 preserveAspectRatio="xMidYMid meet">

<g transform="translate(0.000000,640.000000) scale(0.100000,-0.100000)"
fill="#000000" stroke="none">
<path d="M2460 5753 c-106 -37 -198 -122 -246 -228 l-25 -55 -252 0 c-139 0
-268 -5 -288 -10 -40 -11 -73 -43 -82 -79 -4 -17 38 -160 129 -440 75 -228
138 -419 140 -425 2 -6 -20 -24 -50 -39 -110 -58 -199 -182 -216 -305 -16
-118 27 -255 106 -336 20 -20 35 -38 33 -40 -2 -1 -49 -32 -104 -68 -139 -90
-232 -167 -361 -299 -258 -266 -436 -568 -533 -909 -89 -311 -102 -655 -36
-928 103 -427 402 -707 900 -846 319 -89 805 -129 1298 -107 378 17 575 47
800 121 l118 40 49 -48 c61 -60 136 -98 220 -112 87 -13 1283 -13 1369 0 86
15 166 57 227 122 87 92 119 180 112 306 -5 89 -36 169 -94 239 l-35 43 35 43
c130 159 128 381 -6 532 l-30 35 36 45 c20 24 49 70 64 102 24 52 27 70 27
163 0 93 -3 111 -27 163 -15 32 -44 78 -64 103 l-37 45 25 27 c153 163 142
428 -22 576 -62 56 -150 95 -238 107 -46 6 -335 9 -714 8 l-636 -1 -66 74
c-124 143 -294 287 -448 379 l-77 46 35 34 c20 19 52 68 72 108 35 71 37 80
37 175 0 93 -3 106 -32 169 -38 79 -115 160 -186 195 -26 13 -47 26 -47 29 0
3 61 192 135 420 74 228 135 427 135 442 0 39 -34 78 -78 91 -21 5 -149 10
-294 10 -201 0 -258 3 -258 13 0 47 -95 170 -172 224 -87 60 -246 81 -348 46z
m205 -202 c43 -19 100 -78 116 -118 5 -13 9 -106 9 -206 0 -159 2 -187 19
-217 26 -49 75 -67 125 -46 52 22 66 61 66 191 l0 105 184 0 184 0 -74 -227
c-41 -126 -95 -292 -120 -371 l-46 -142 -541 2 -540 3 -118 365 c-66 200 -119
366 -119 367 0 2 107 3 239 3 144 0 250 4 269 11 39 13 57 42 65 102 13 92 63
158 138 182 60 19 97 18 144 -4z m635 -1261 c121 -68 143 -228 43 -322 -62
-60 -43 -58 -751 -58 -470 0 -658 3 -683 12 -52 18 -85 46 -113 98 -31 57 -34
117 -7 175 21 47 80 102 119 111 15 3 32 7 37 9 6 2 303 3 660 2 l650 -2 45
-25z m17 -650 c65 -33 160 -91 212 -128 94 -67 303 -258 322 -295 9 -16 4 -26
-30 -61 -134 -137 -137 -389 -6 -534 l37 -41 -34 -43 c-75 -94 -100 -161 -100
-268 0 -110 32 -193 104 -276 l31 -35 -36 -37 c-130 -133 -131 -388 -2 -530
l37 -41 -41 -48 c-64 -76 -90 -148 -94 -262 l-2 -45 -60 -23 c-119 -47 -326
-92 -520 -115 -176 -21 -890 -17 -1080 5 -456 54 -757 168 -946 357 -198 200
-279 445 -266 812 9 268 64 490 182 733 190 391 481 696 841 879 l109 56 612
0 612 0 118 -60z m2121 -566 c98 -40 149 -144 122 -245 -15 -56 -81 -123 -135
-138 -27 -7 -244 -11 -688 -11 -707 0 -687 -2 -751 58 -80 75 -88 191 -18 273
71 82 32 79 775 79 572 0 662 -2 695 -16z m23 -627 c135 -72 138 -274 5 -352
l-43 -25 -679 0 -679 0 -40 23 c-143 81 -137 283 10 360 26 14 110 16 706 17
l676 0 44 -23z m-23 -603 c167 -69 172 -294 8 -370 l-51 -24 -645 0 c-420 0
-658 4 -683 11 -75 20 -146 111 -147 185 0 58 12 93 48 135 71 82 32 79 775
79 572 0 662 -2 695 -16z m20 -622 c84 -45 126 -141 102 -231 -15 -55 -81
-127 -129 -141 -22 -6 -283 -10 -697 -10 l-661 0 -44 23 c-126 67 -146 238
-37 331 22 19 56 39 76 44 23 7 285 10 692 9 l655 -2 43 -23z"/>
</g>
</svg>
