<?xml version="1.0" standalone="no"?>
<!DOCTYPE svg PUBLIC "-//W3C//DTD SVG 20010904//EN"
 "http://www.w3.org/TR/2001/REC-SVG-20010904/DTD/svg10.dtd">
<svg version="1.0" xmlns="http://www.w3.org/2000/svg"
 width="512.000000pt" height="512.000000pt" viewBox="0 0 512.000000 512.000000"
 preserveAspectRatio="xMidYMid meet">

<g transform="translate(0.000000,512.000000) scale(0.100000,-0.100000)"
fill="#000000" stroke="none">
<path d="M1840 5104 c-114 -31 -212 -113 -263 -221 l-29 -63 -251 0 c-142 0
-268 -5 -289 -10 -48 -14 -78 -52 -78 -100 0 -20 58 -216 130 -436 71 -219
130 -404 130 -409 0 -6 -21 -21 -47 -35 -68 -36 -137 -109 -175 -187 -31 -64
-33 -73 -33 -178 0 -125 14 -167 86 -263 23 -29 39 -55 37 -56 -1 -1 -41 -26
-88 -56 -435 -280 -765 -736 -900 -1244 -42 -158 -60 -279 -66 -451 -16 -396
93 -719 318 -943 98 -97 172 -151 298 -216 294 -152 641 -220 1195 -232 505
-12 918 32 1219 130 l101 33 54 -49 c61 -55 113 -85 186 -104 73 -20 1357 -20
1430 0 150 40 261 151 301 300 34 126 -1 272 -87 371 l-31 35 31 35 c132 151
132 389 0 540 l-31 35 31 35 c132 151 132 389 0 540 l-31 35 31 35 c201 229
85 591 -214 671 -39 11 -193 14 -723 14 l-673 0 -32 38 c-122 142 -277 280
-430 382 -49 32 -94 61 -100 63 -6 2 8 28 31 58 73 97 87 139 87 264 0 105 -2
114 -33 178 -38 78 -107 151 -175 187 -26 14 -47 29 -47 35 0 5 59 190 130
409 72 220 130 416 130 436 0 48 -30 86 -78 100 -21 5 -147 10 -289 10 l-251
0 -29 63 c-85 180 -288 273 -483 221z m178 -217 c17 -7 46 -25 62 -41 60 -56
64 -72 68 -293 l4 -203 34 -30 c48 -42 92 -41 141 4 l37 33 4 122 4 121 169 0
c93 0 169 -3 169 -8 0 -4 -51 -165 -114 -357 l-114 -350 -532 0 -532 0 -114
350 c-63 192 -114 353 -114 357 0 5 113 8 251 8 l251 0 28 28 c20 21 30 43 35
78 9 69 22 98 60 136 55 54 131 70 203 45z m628 -1252 c71 -35 104 -90 104
-171 0 -86 -43 -149 -125 -181 -22 -8 -205 -11 -675 -11 -659 0 -674 0 -726
38 -77 56 -99 177 -47 258 18 28 45 51 77 67 l50 25 646 0 646 0 50 -25z m5
-638 c184 -93 412 -267 514 -391 l37 -46 -35 -40 c-138 -152 -140 -392 -6
-545 l31 -35 -31 -35 c-132 -151 -132 -389 0 -540 l31 -35 -31 -35 c-132 -151
-132 -389 0 -540 l31 -35 -31 -35 c-60 -68 -101 -176 -101 -266 l0 -46 -102
-31 c-265 -83 -592 -122 -1013 -122 -721 0 -1189 119 -1449 369 -225 217 -315
545 -261 958 82 619 465 1168 1012 1449 l106 54 597 0 597 0 104 -53z m2134
-576 c48 -22 79 -54 100 -103 40 -96 -4 -205 -100 -249 -38 -17 -80 -19 -693
-19 -567 0 -658 2 -690 15 -158 67 -162 284 -7 356 38 17 79 19 695 19 616 0
657 -2 695 -19z m0 -610 c48 -22 79 -54 100 -103 40 -96 -4 -205 -100 -249
-38 -17 -80 -19 -693 -19 -567 0 -658 2 -690 15 -158 67 -162 284 -7 356 38
17 79 19 695 19 616 0 657 -2 695 -19z m0 -610 c48 -22 79 -54 100 -103 40
-96 -4 -205 -100 -249 -38 -17 -80 -19 -693 -19 -567 0 -658 2 -690 15 -158
67 -162 284 -7 356 38 17 79 19 695 19 616 0 657 -2 695 -19z m0 -610 c48 -22
79 -54 100 -103 40 -96 -4 -205 -100 -249 -38 -17 -80 -19 -693 -19 -567 0
-658 2 -690 15 -158 67 -162 284 -7 356 38 17 79 19 695 19 616 0 657 -2 695
-19z"/>
</g>
</svg>
